# Blender 3.3.1
# www.blender.org
mtllib fixrtm_debugtrain.mtl
o Body
v 0.000000 1.500000 -5.000000
v 0.000000 1.500000 3.000000
v 0.250000 1.433013 -5.000000
v 0.250000 1.433012 3.000000
v 0.433013 1.250000 -5.000000
v 0.433013 1.250000 3.000000
v 0.500000 1.000000 -5.000000
v 0.500000 1.000000 3.000000
v 0.433013 0.750000 -5.000000
v 0.433013 0.750000 3.000000
v 0.250000 0.566988 -5.000000
v 0.250000 0.566987 3.000000
v 0.000000 0.500000 -5.000000
v 0.000000 0.500000 3.000000
v -0.250000 0.566988 -5.000000
v -0.250000 0.566987 3.000000
v -0.433013 0.750000 -5.000000
v -0.433013 0.750000 3.000000
v -0.500000 1.000000 -5.000000
v -0.500000 1.000000 3.000000
v -0.433013 1.250000 -5.000000
v -0.433013 1.250000 3.000000
v -0.250000 1.433013 -5.000000
v -0.250000 1.433012 3.000000
v 0.000000 2.000000 3.000000
v 0.500000 1.866025 3.000000
v 0.866025 1.500000 3.000000
v 1.000000 1.000000 3.000000
v 0.866025 0.500000 3.000000
v 0.500000 0.133975 3.000000
v 0.000000 0.000000 3.000000
v -0.500000 0.133975 3.000000
v -0.866025 0.500000 3.000000
v -1.000000 1.000000 3.000000
v -0.866025 1.500000 3.000000
v -0.500000 1.866025 3.000000
v 0.000000 1.000000 5.000000
v 0.000000 1.000000 -5.000000
v 0.000000 0.999999 3.000000
vn 0.2588 0.9659 -0.0000
vn 0.7071 0.7071 -0.0000
vn 0.9659 0.2588 -0.0000
vn 0.9659 -0.2588 -0.0000
vn 0.7071 -0.7071 -0.0000
vn 0.2588 -0.9659 -0.0000
vn -0.2588 -0.9659 -0.0000
vn -0.7071 -0.7071 -0.0000
vn -0.9659 -0.2588 -0.0000
vn -0.9659 0.2588 -0.0000
vn -0.7071 0.7071 -0.0000
vn -0.2588 0.9659 -0.0000
vn -0.0000 -0.0000 -1.0000
vn 0.2331 0.8698 0.4349
vn 0.6367 0.6367 0.4349
vn 0.8698 0.2331 0.4349
vn 0.8698 -0.2331 0.4349
vn 0.6367 -0.6367 0.4349
vn 0.2331 -0.8698 0.4349
vn -0.2331 -0.8698 0.4349
vn -0.6367 -0.6367 0.4349
vn -0.8698 -0.2331 0.4349
vn -0.8698 0.2331 0.4349
vn -0.6367 0.6367 0.4349
vn -0.2331 0.8698 0.4349
vt 1.000000 0.500000
vt 0.000000 0.500000
vt 0.750000 0.490000
vt 1.000000 1.000000
vt 0.000000 1.000000
vt 0.916667 0.500000
vt 0.870000 0.457846
vt 0.916667 1.000000
vt 0.833333 0.500000
vt 0.957846 0.370000
vt 0.833333 1.000000
vt 0.750000 0.500000
vt 0.990000 0.250000
vt 0.750000 1.000000
vt 0.666667 0.500000
vt 0.957846 0.130000
vt 0.666667 1.000000
vt 0.583333 0.500000
vt 0.870000 0.042154
vt 0.583333 1.000000
vt 0.500000 0.500000
vt 0.750000 0.010000
vt 0.500000 1.000000
vt 0.416667 0.500000
vt 0.630000 0.042154
vt 0.416667 1.000000
vt 0.333333 0.500000
vt 0.542154 0.130000
vt 0.333333 1.000000
vt 0.250000 0.500000
vt 0.510000 0.250000
vt 0.250000 1.000000
vt 0.166667 0.500000
vt 0.542154 0.370000
vt 0.166667 1.000000
vt 0.083333 0.500000
vt 0.630000 0.457846
vt 0.083333 1.000000
vt 0.250000 0.490000
vt 0.750000 0.490000
vt 0.370000 0.457846
vt 0.870000 0.457846
vt 0.457846 0.370000
vt 0.957846 0.370000
vt 0.490000 0.250000
vt 0.990000 0.250000
vt 0.457846 0.130000
vt 0.957846 0.130000
vt 0.370000 0.042154
vt 0.870000 0.042154
vt 0.250000 0.010000
vt 0.750000 0.010000
vt 0.130000 0.042154
vt 0.630000 0.042154
vt 0.042154 0.130000
vt 0.542154 0.130000
vt 0.010000 0.250000
vt 0.510000 0.250000
vt 0.042154 0.370000
vt 0.542154 0.370000
vt 0.130000 0.457846
vt 0.630000 0.457846
vt 0.250000 0.250000
vt 0.750000 0.250000
vt 0.750000 0.250000
s 0
f 1/1/1 2/4/1 4/8/1 3/6/1
f 3/6/2 4/8/2 6/11/2 5/9/2
f 5/9/3 6/11/3 8/14/3 7/12/3
f 7/12/4 8/14/4 10/17/4 9/15/4
f 9/15/5 10/17/5 12/20/5 11/18/5
f 11/18/6 12/20/6 14/23/6 13/21/6
f 13/21/7 14/23/7 16/26/7 15/24/7
f 15/24/8 16/26/8 18/29/8 17/27/8
f 17/27/9 18/29/9 20/32/9 19/30/9
f 19/30/10 20/32/10 22/35/10 21/33/10
f 21/33/11 22/35/11 24/38/11 23/36/11
f 23/36/12 24/38/12 2/5/12 1/2/12
f 1/3/13 38/64/13 23/37/13
f 25/39/14 37/63/14 26/41/14
f 26/41/15 37/63/15 27/43/15
f 27/43/16 37/63/16 28/45/16
f 28/45/17 37/63/17 29/47/17
f 29/47/18 37/63/18 30/49/18
f 30/49/19 37/63/19 31/51/19
f 31/51/20 37/63/20 32/53/20
f 32/53/21 37/63/21 33/55/21
f 33/55/22 37/63/22 34/57/22
f 34/57/23 37/63/23 35/59/23
f 25/40/13 39/65/13 36/62/13
f 35/59/24 37/63/24 36/61/24
f 36/61/25 37/63/25 25/39/25
f 23/37/13 38/64/13 21/34/13
f 21/34/13 38/64/13 19/31/13
f 19/31/13 38/64/13 17/28/13
f 17/28/13 38/64/13 15/25/13
f 15/25/13 38/64/13 13/22/13
f 13/22/13 38/64/13 11/19/13
f 11/19/13 38/64/13 9/16/13
f 9/16/13 38/64/13 7/13/13
f 7/13/13 38/64/13 5/10/13
f 5/10/13 38/64/13 3/7/13
f 3/7/13 38/64/13 1/3/13
f 36/62/13 39/65/13 35/60/13
f 35/60/13 39/65/13 34/58/13
f 34/58/13 39/65/13 33/56/13
f 33/56/13 39/65/13 32/54/13
f 32/54/13 39/65/13 31/52/13
f 31/52/13 39/65/13 30/50/13
f 30/50/13 39/65/13 29/48/13
f 29/48/13 39/65/13 28/46/13
f 28/46/13 39/65/13 27/44/13
f 27/44/13 39/65/13 26/42/13
f 26/42/13 39/65/13 25/40/13
